<svg xmlns="http://www.w3.org/2000/svg" viewBox="0 0 30 30" fill="none">
  <!-- Ground logs -->
  <line x1="8" y1="26" x2="22" y2="26" stroke="#FF6B35" stroke-width="2.5" stroke-linecap="round"/>
  <line x1="6" y1="24" x2="16" y2="24" stroke="#FF6B35" stroke-width="2" stroke-linecap="round" opacity="0.7"/>
  <line x1="14" y1="24" x2="24" y2="24" stroke="#FF6B35" stroke-width="2" stroke-linecap="round" opacity="0.7"/>
  <!-- Crossed sticks -->
  <line x1="10" y1="24" x2="15" y2="14" stroke="#FF6B35" stroke-width="2" stroke-linecap="round" opacity="0.8"/>
  <line x1="20" y1="24" x2="15" y2="14" stroke="#FF6B35" stroke-width="2" stroke-linecap="round" opacity="0.8"/>
  <!-- Flames -->
  <path d="M15 14 C13 11 12 8 14 5 C14 8 16 7 16 9 C18 6 17 4 19 3 C19 7 17 9 18 12 C17 10 16 11 15 14 Z" fill="#FF6B35"/>
  <path d="M12 16 C10 13 10 10 12 8 C11 11 13 11 13 13 C12 12 12 14 12 16 Z" fill="#FF6B35" opacity="0.6"/>
  <path d="M18 16 C20 13 20 10 18 8 C19 11 17 11 17 13 C18 12 18 14 18 16 Z" fill="#FF6B35" opacity="0.6"/>
</svg>
